<svg width="41" height="41" viewBox="0 0 41 41" fill="none" xmlns="http://www.w3.org/2000/svg">
<mask id="mask0_25_16" style="mask-type:alpha" maskUnits="userSpaceOnUse" x="4" y="4" width="33" height="33">
<path d="M21.8877 21.8877L25.7767 17.9986C26.7531 17.0223 26.7531 15.4394 25.7767 14.4631L17.0815 5.76778C16.1052 4.79147 14.5223 4.79147 13.5459 5.76778L5.76777 13.546C4.79146 14.5223 4.79146 16.1052 5.76777 17.0815L10.1154 21.4291" stroke="#ABFF40" stroke-width="2" stroke-linecap="round"/>
<path d="M18.9454 18.9454L15.0563 22.8345C14.08 23.8108 14.08 25.3937 15.0563 26.37L23.5459 34.8596C24.5223 35.8359 26.1052 35.8359 27.0815 34.8596L34.8597 27.0814C35.836 26.1051 35.836 24.5222 34.8596 23.5459L30.6148 19.3011" stroke="#ABFF40" stroke-width="2" stroke-linecap="round" stroke-linejoin="round"/>
</mask>
<g mask="url(#mask0_25_16)">
<path d="M21.8877 21.8877L25.7767 17.9986C26.7531 17.0223 26.7531 15.4394 25.7767 14.4631L17.0815 5.76778C16.1052 4.79147 14.5223 4.79147 13.5459 5.76778L5.76777 13.546C4.79146 14.5223 4.79146 16.1052 5.76777 17.0815L10.1154 21.4291" stroke="white" stroke-width="2" stroke-linecap="round"/>
<path d="M18.9454 18.9454L15.0563 22.8345C14.08 23.8108 14.08 25.3937 15.0563 26.37L23.5459 34.8596C24.5223 35.8359 26.1052 35.8359 27.0815 34.8596L34.8597 27.0814C35.836 26.1051 35.836 24.5222 34.8596 23.5459L30.6148 19.3011" stroke="white" stroke-width="2" stroke-linecap="round" stroke-linejoin="round"/>
<g filter="url(#filter0_d_25_16)">
<path d="M34.2305 4.67927V4H33.588V4.67927H34.2305Z" fill="#C8FF9C"/>
<path d="M31.5773 4.67927V4H30.9347V4.67927H31.5773Z" fill="#C8FF9C"/>
<path d="M28.9241 4.67927V4H28.2815V4.67927H28.9241Z" fill="#C8FF9C"/>
<path d="M26.2708 4.67927V4H25.6282V4.67927H26.2708Z" fill="#C8FF9C"/>
<path d="M23.6176 4.67927V4H22.975V4.67927H23.6176Z" fill="#C8FF9C"/>
<path d="M20.9643 4.67927V4H20.3218V4.67927H20.9643Z" fill="#C8FF9C"/>
<path d="M18.3111 4.67927V4H17.6685V4.67927H18.3111Z" fill="#C8FF9C"/>
<path d="M15.6579 4.67927V4H15.0153V4.67927H15.6579Z" fill="#C8FF9C"/>
<path d="M13.0046 4.67927V4H12.362V4.67927H13.0046Z" fill="#C8FF9C"/>
<path d="M10.3514 4.67927V4H9.70881V4.67927H10.3514Z" fill="#C8FF9C"/>
<path d="M7.69814 4.67927V4H7.05557V4.67927H7.69814Z" fill="#C8FF9C"/>
<path d="M5.04489 4.67927V4H4.40233V4.67927H5.04489Z" fill="#C8FF9C"/>
<path d="M35.5977 7.52688V6.76194H34.8741V7.52688H35.5977Z" fill="#C8FF9C"/>
<path d="M32.9444 7.52688V6.76194H32.2208V7.52688H32.9444Z" fill="#C8FF9C"/>
<path d="M30.2912 7.52688V6.76194H29.5676V7.52688H30.2912Z" fill="#C8FF9C"/>
<path d="M27.638 7.52688V6.76194H26.9143V7.52688H27.638Z" fill="#C8FF9C"/>
<path d="M24.9847 7.52688V6.76194H24.2611V7.52688H24.9847Z" fill="#C8FF9C"/>
<path d="M22.3315 7.52688V6.76194H21.6079V7.52688H22.3315Z" fill="#C8FF9C"/>
<path d="M19.6782 7.52688V6.76194H18.9546V7.52688H19.6782Z" fill="#C8FF9C"/>
<path d="M17.025 7.52688V6.76194H16.3014V7.52688H17.025Z" fill="#C8FF9C"/>
<path d="M14.3718 7.52688V6.76194H13.6481V7.52688H14.3718Z" fill="#C8FF9C"/>
<path d="M11.7185 7.52688V6.76194H10.9949V7.52688H11.7185Z" fill="#C8FF9C"/>
<path d="M9.06528 7.52688V6.76194H8.34166V7.52688H9.06528Z" fill="#C8FF9C"/>
<path d="M6.41204 7.52688V6.76194H5.68843V7.52688H6.41204Z" fill="#C8FF9C"/>
<path d="M34.3116 10.3745V9.52389H33.5069V10.3745H34.3116Z" fill="#C8FF9C"/>
<path d="M31.6583 10.3745V9.52389H30.8537V10.3745H31.6583Z" fill="#C8FF9C"/>
<path d="M29.0051 10.3745V9.52389H28.2004V10.3745H29.0051Z" fill="#C8FF9C"/>
<path d="M26.3519 10.3745V9.52389H25.5472V10.3745H26.3519Z" fill="#C8FF9C"/>
<path d="M23.6986 10.3745V9.52389H22.894V10.3745H23.6986Z" fill="#C8FF9C"/>
<path d="M21.0454 10.3745V9.52389H20.2407V10.3745H21.0454Z" fill="#C8FF9C"/>
<path d="M18.3921 10.3745V9.52389H17.5875V10.3745H18.3921Z" fill="#C8FF9C"/>
<path d="M15.7389 10.3745V9.52389H14.9342V10.3745H15.7389Z" fill="#C8FF9C"/>
<path d="M13.0857 10.3745V9.52389H12.281V10.3745H13.0857Z" fill="#C8FF9C"/>
<path d="M10.4324 10.3745V9.52389H9.62776V10.3745H10.4324Z" fill="#C8FF9C"/>
<path d="M7.77918 10.3745V9.52389H6.97452V10.3745H7.77918Z" fill="#C8FF9C"/>
<path d="M5.12594 10.3745V9.52389H4.32128V10.3745H5.12594Z" fill="#C8FF9C"/>
<path d="M35.6787 13.2221V12.2858H34.793V13.2221H35.6787Z" fill="#C8FF9C"/>
<path d="M33.0255 13.2221V12.2858H32.1398V13.2221H33.0255Z" fill="#C8FF9C"/>
<path d="M30.3722 13.2221V12.2858H29.4865V13.2221H30.3722Z" fill="#C8FF9C"/>
<path d="M27.719 13.2221V12.2858H26.8333V13.2221H27.719Z" fill="#C8FF9C"/>
<path d="M25.0658 13.2221V12.2858H24.1801V13.2221H25.0658Z" fill="#C8FF9C"/>
<path d="M22.4125 13.2221V12.2858H21.5268V13.2221H22.4125Z" fill="#C8FF9C"/>
<path d="M19.7593 13.2221V12.2858H18.8736V13.2221H19.7593Z" fill="#C8FF9C"/>
<path d="M17.106 13.2221V12.2858H16.2203V13.2221H17.106Z" fill="#C8FF9C"/>
<path d="M14.4528 13.2221V12.2858H13.5671V13.2221H14.4528Z" fill="#C8FF9C"/>
<path d="M11.7996 13.2221V12.2858H10.9139V13.2221H11.7996Z" fill="#C8FF9C"/>
<path d="M9.14632 13.2221V12.2858H8.26062V13.2221H9.14632Z" fill="#C8FF9C"/>
<path d="M6.49308 13.2221V12.2858H5.60738V13.2221H6.49308Z" fill="#C8FF9C"/>
<path d="M34.3912 16.0682V15.0493H33.4273V16.0682H34.3912Z" fill="#C8FF9C"/>
<path d="M31.7379 16.0682V15.0493H30.7741V16.0682H31.7379Z" fill="#C8FF9C"/>
<path d="M29.0847 16.0682V15.0493H28.1208V16.0682H29.0847Z" fill="#C8FF9C"/>
<path d="M26.4315 16.0682V15.0493H25.4676V16.0682H26.4315Z" fill="#C8FF9C"/>
<path d="M23.7782 16.0682V15.0493H22.8144V16.0682H23.7782Z" fill="#C8FF9C"/>
<path d="M21.125 16.0682V15.0493H20.1611V16.0682H21.125Z" fill="#C8FF9C"/>
<path d="M18.4717 16.0682V15.0493H17.5079V16.0682H18.4717Z" fill="#C8FF9C"/>
<path d="M15.8185 16.0682V15.0493H14.8546V16.0682H15.8185Z" fill="#C8FF9C"/>
<path d="M13.1653 16.0682V15.0493H12.2014V16.0682H13.1653Z" fill="#C8FF9C"/>
<path d="M10.512 16.0682V15.0493H9.54817V16.0682H10.512Z" fill="#C8FF9C"/>
<path d="M7.85878 16.0682V15.0493H6.89493V16.0682H7.85878Z" fill="#C8FF9C"/>
<path d="M5.20554 16.0682V15.0493H4.24169V16.0682H5.20554Z" fill="#C8FF9C"/>
<path d="M35.7583 18.9158V17.8113H34.7134V18.9158H35.7583Z" fill="#C8FF9C"/>
<path d="M33.1051 18.9158V17.8113H32.0602V18.9158H33.1051Z" fill="#C8FF9C"/>
<path d="M30.4518 18.9158V17.8113H29.4069V18.9158H30.4518Z" fill="#C8FF9C"/>
<path d="M27.7986 18.9158V17.8113H26.7537V18.9158H27.7986Z" fill="#C8FF9C"/>
<path d="M25.1454 18.9158V17.8113H24.1005V18.9158H25.1454Z" fill="#C8FF9C"/>
<path d="M22.4921 18.9158V17.8113H21.4472V18.9158H22.4921Z" fill="#C8FF9C"/>
<path d="M19.8389 18.9158V17.8113H18.794V18.9158H19.8389Z" fill="#C8FF9C"/>
<path d="M17.1856 18.9158V17.8113H16.1407V18.9158H17.1856Z" fill="#C8FF9C"/>
<path d="M14.5324 18.9158V17.8113H13.4875V18.9158H14.5324Z" fill="#C8FF9C"/>
<path d="M11.8792 18.9158V17.8113H10.8343V18.9158H11.8792Z" fill="#C8FF9C"/>
<path d="M9.22592 18.9158V17.8113H8.18102V18.9158H9.22592Z" fill="#C8FF9C"/>
<path d="M6.57268 18.9158V17.8113H5.52778V18.9158H6.57268Z" fill="#C8FF9C"/>
<path d="M34.4722 21.7634V20.5732H33.3463V21.7634H34.4722Z" fill="#C8FF9C"/>
<path d="M31.819 21.7634V20.5732H30.693V21.7634H31.819Z" fill="#C8FF9C"/>
<path d="M29.1657 21.7634V20.5732H28.0398V21.7634H29.1657Z" fill="#C8FF9C"/>
<path d="M26.5125 21.7634V20.5732H25.3866V21.7634H26.5125Z" fill="#C8FF9C"/>
<path d="M23.8593 21.7634V20.5732H22.7333V21.7634H23.8593Z" fill="#C8FF9C"/>
<path d="M21.206 21.7634V20.5732H20.0801V21.7634H21.206Z" fill="#C8FF9C"/>
<path d="M18.5528 21.7634V20.5732H17.4268V21.7634H18.5528Z" fill="#C8FF9C"/>
<path d="M15.8995 21.7634V20.5732H14.7736V21.7634H15.8995Z" fill="#C8FF9C"/>
<path d="M13.2463 21.7634V20.5732H12.1204V21.7634H13.2463Z" fill="#C8FF9C"/>
<path d="M10.5931 21.7634V20.5732H9.46712V21.7634H10.5931Z" fill="#C8FF9C"/>
<path d="M7.93982 21.7634V20.5732H6.81388V21.7634H7.93982Z" fill="#C8FF9C"/>
<path d="M5.28658 21.7634V20.5732H4.16064V21.7634H5.28658Z" fill="#C8FF9C"/>
<path d="M35.8394 24.6111V23.3351H34.6324V24.6111H35.8394Z" fill="#C8FF9C"/>
<path d="M33.1861 24.6111V23.3351H31.9791V24.6111H33.1861Z" fill="#C8FF9C"/>
<path d="M30.5329 24.6111V23.3351H29.3259V24.6111H30.5329Z" fill="#C8FF9C"/>
<path d="M27.8796 24.6111V23.3351H26.6727V24.6111H27.8796Z" fill="#C8FF9C"/>
<path d="M25.2264 24.6111V23.3351H24.0194V24.6111H25.2264Z" fill="#C8FF9C"/>
<path d="M22.5732 24.6111V23.3351H21.3662V24.6111H22.5732Z" fill="#C8FF9C"/>
<path d="M19.9199 24.6111V23.3351H18.7129V24.6111H19.9199Z" fill="#C8FF9C"/>
<path d="M17.2667 24.6111V23.3351H16.0597V24.6111H17.2667Z" fill="#C8FF9C"/>
<path d="M14.6134 24.6111V23.3351H13.4065V24.6111H14.6134Z" fill="#C8FF9C"/>
<path d="M11.9602 24.6111V23.3351H10.7532V24.6111H11.9602Z" fill="#C8FF9C"/>
<path d="M9.30696 24.6111V23.3351H8.09998V24.6111H9.30696Z" fill="#C8FF9C"/>
<path d="M6.65372 24.6111V23.3351H5.44674V24.6111H6.65372Z" fill="#C8FF9C"/>
<path d="M34.5518 27.4571V26.0986H33.2667V27.4571H34.5518Z" fill="#C8FF9C"/>
<path d="M31.8986 27.4571V26.0986H30.6134V27.4571H31.8986Z" fill="#C8FF9C"/>
<path d="M29.2453 27.4571V26.0986H27.9602V27.4571H29.2453Z" fill="#C8FF9C"/>
<path d="M26.5921 27.4571V26.0986H25.307V27.4571H26.5921Z" fill="#C8FF9C"/>
<path d="M23.9389 27.4571V26.0986H22.6537V27.4571H23.9389Z" fill="#C8FF9C"/>
<path d="M21.2856 27.4571V26.0986H20.0005V27.4571H21.2856Z" fill="#C8FF9C"/>
<path d="M18.6324 27.4571V26.0986H17.3472V27.4571H18.6324Z" fill="#C8FF9C"/>
<path d="M15.9791 27.4571V26.0986H14.694V27.4571H15.9791Z" fill="#C8FF9C"/>
<path d="M13.3259 27.4571V26.0986H12.0408V27.4571H13.3259Z" fill="#C8FF9C"/>
<path d="M10.6727 27.4571V26.0986H9.38752V27.4571H10.6727Z" fill="#C8FF9C"/>
<path d="M8.01942 27.4571V26.0986H6.73429V27.4571H8.01942Z" fill="#C8FF9C"/>
<path d="M5.36618 27.4571V26.0986H4.08104V27.4571H5.36618Z" fill="#C8FF9C"/>
<path d="M35.919 30.3048V28.8606H34.5528V30.3048H35.919Z" fill="#C8FF9C"/>
<path d="M33.2657 30.3048V28.8606H31.8995V30.3048H33.2657Z" fill="#C8FF9C"/>
<path d="M30.6125 30.3048V28.8606H29.2463V30.3048H30.6125Z" fill="#C8FF9C"/>
<path d="M27.9592 30.3048V28.8606H26.5931V30.3048H27.9592Z" fill="#C8FF9C"/>
<path d="M25.306 30.3048V28.8606H23.9398V30.3048H25.306Z" fill="#C8FF9C"/>
<path d="M22.6528 30.3048V28.8606H21.2866V30.3048H22.6528Z" fill="#C8FF9C"/>
<path d="M19.9995 30.3048V28.8606H18.6333V30.3048H19.9995Z" fill="#C8FF9C"/>
<path d="M17.3463 30.3048V28.8606H15.9801V30.3048H17.3463Z" fill="#C8FF9C"/>
<path d="M14.693 30.3048V28.8606H13.3269V30.3048H14.693Z" fill="#C8FF9C"/>
<path d="M12.0398 30.3048V28.8606H10.6736V30.3048H12.0398Z" fill="#C8FF9C"/>
<path d="M9.38656 30.3048V28.8606H8.02038V30.3048H9.38656Z" fill="#C8FF9C"/>
<path d="M6.73332 30.3048V28.8606H5.36714V30.3048H6.73332Z" fill="#C8FF9C"/>
<path d="M34.6329 33.1524V31.6225H33.1856V33.1524H34.6329Z" fill="#C8FF9C"/>
<path d="M31.9796 33.1524V31.6225H30.5324V33.1524H31.9796Z" fill="#C8FF9C"/>
<path d="M29.3264 33.1524V31.6225H27.8792V33.1524H29.3264Z" fill="#C8FF9C"/>
<path d="M26.6731 33.1524V31.6225H25.2259V33.1524H26.6731Z" fill="#C8FF9C"/>
<path d="M24.0199 33.1524V31.6225H22.5727V33.1524H24.0199Z" fill="#C8FF9C"/>
<path d="M21.3667 33.1524V31.6225H19.9194V33.1524H21.3667Z" fill="#C8FF9C"/>
<path d="M18.7134 33.1524V31.6225H17.2662V33.1524H18.7134Z" fill="#C8FF9C"/>
<path d="M16.0602 33.1524V31.6225H14.613V33.1524H16.0602Z" fill="#C8FF9C"/>
<path d="M13.4069 33.1524V31.6225H11.9597V33.1524H13.4069Z" fill="#C8FF9C"/>
<path d="M10.7537 33.1524V31.6225H9.30648V33.1524H10.7537Z" fill="#C8FF9C"/>
<path d="M8.10046 33.1524V31.6225H6.65324V33.1524H8.10046Z" fill="#C8FF9C"/>
<path d="M5.44722 33.1524V31.6225H4V33.1524H5.44722Z" fill="#C8FF9C"/>
<path d="M36 36V34.3844H34.4717V36H36Z" fill="#C8FF9C"/>
<path d="M33.3468 36V34.3844H31.8185V36H33.3468Z" fill="#C8FF9C"/>
<path d="M30.6935 36V34.3844H29.1653V36H30.6935Z" fill="#C8FF9C"/>
<path d="M28.0403 36V34.3844H26.512V36H28.0403Z" fill="#C8FF9C"/>
<path d="M25.387 36V34.3844H23.8588V36H25.387Z" fill="#C8FF9C"/>
<path d="M22.7338 36V34.3844H21.2055V36H22.7338Z" fill="#C8FF9C"/>
<path d="M20.0806 36V34.3844H18.5523V36H20.0806Z" fill="#C8FF9C"/>
<path d="M17.4273 36V34.3844H15.8991V36H17.4273Z" fill="#C8FF9C"/>
<path d="M14.7741 36V34.3844H13.2458V36H14.7741Z" fill="#C8FF9C"/>
<path d="M12.1208 36V34.3844H10.5926V36H12.1208Z" fill="#C8FF9C"/>
<path d="M9.4676 36V34.3844H7.93934V36H9.4676Z" fill="#C8FF9C"/>
<path d="M6.81436 36V34.3844H5.2861V36H6.81436Z" fill="#C8FF9C"/>
</g>
</g>
<path d="M21.8877 21.8877L25.7767 17.9986C26.7531 17.0223 26.7531 15.4394 25.7767 14.4631L17.0815 5.76778C16.1052 4.79147 14.5223 4.79147 13.5459 5.76778L5.76777 13.546C4.79146 14.5223 4.79146 16.1052 5.76777 17.0815L10.1154 21.4291" stroke="white" stroke-width="2" stroke-linecap="round"/>
<path d="M18.9454 18.9454L15.0563 22.8345C14.08 23.8108 14.08 25.3937 15.0563 26.37L23.5459 34.8596C24.5223 35.8359 26.1052 35.8359 27.0815 34.8596L34.8597 27.0814C35.836 26.1051 35.836 24.5222 34.8596 23.5459L30.6148 19.3011" stroke="white" stroke-width="2" stroke-linecap="round" stroke-linejoin="round"/>
<defs>
<filter id="filter0_d_25_16" x="-36" y="-32" width="112" height="112" filterUnits="userSpaceOnUse" color-interpolation-filters="sRGB">
<feFlood flood-opacity="0" result="BackgroundImageFix"/>
<feColorMatrix in="SourceAlpha" type="matrix" values="0 0 0 0 0 0 0 0 0 0 0 0 0 0 0 0 0 0 127 0" result="hardAlpha"/>
<feOffset dy="4"/>
<feGaussianBlur stdDeviation="20"/>
<feComposite in2="hardAlpha" operator="out"/>
<feColorMatrix type="matrix" values="0 0 0 0 0.669842 0 0 0 0 1 0 0 0 0 0.249641 0 0 0 1 0"/>
<feBlend mode="normal" in2="BackgroundImageFix" result="effect1_dropShadow_25_16"/>
<feBlend mode="normal" in="SourceGraphic" in2="effect1_dropShadow_25_16" result="shape"/>
</filter>
</defs>
</svg>
